<svg style="display: none" xmlns="http://www.w3.org/2000/svg">
  <symbol viewBox="0 0 40 40" id="iconWA">
    <path
    d="M26.8034 15.6897C24.41 11.9999 19.5235 10.9029 15.7339 13.1966C12.0441 15.4903 10.8474 20.4765 13.2408 24.1664L13.4402 24.4655L12.6424 27.4573L15.6342 26.6595L15.9334 26.8589C17.2298 27.557 18.626 27.9559 20.0221 27.9559C21.518 27.9559 23.0139 27.557 24.3103 26.7592C28.0001 24.3658 29.0971 19.4793 26.8034 15.6897ZM24.7092 23.3685C24.3103 23.9669 23.8117 24.3658 23.1136 24.4655C22.7147 24.4655 22.2161 24.665 20.2216 23.8672C18.5262 23.0694 17.1301 21.7729 16.1328 20.2771C15.5345 19.579 15.2353 18.6815 15.1356 17.7839C15.1356 16.9861 15.4347 16.2881 15.9334 15.7894C16.1328 15.59 16.3323 15.4903 16.5317 15.4903H17.0304C17.2298 15.4903 17.4293 15.4903 17.529 15.8892C17.7284 16.3878 18.2271 17.5845 18.2271 17.6842C18.3268 17.7839 18.3268 17.9834 18.2271 18.0831C18.3268 18.2826 18.2271 18.482 18.1273 18.5817C18.0276 18.6815 17.9279 18.8809 17.8282 18.9806C17.6287 19.0804 17.529 19.2798 17.6287 19.4793C18.0276 20.0776 18.5262 20.676 19.0249 21.1746C19.6232 21.6732 20.2216 22.0721 20.9196 22.3713C21.1191 22.471 21.3185 22.471 21.4183 22.2716C21.518 22.0721 22.0166 21.5735 22.2161 21.374C22.4155 21.1746 22.5152 21.1746 22.7147 21.2743L24.3103 22.0721C24.5097 22.1718 24.7092 22.2716 24.8089 22.3713C24.9086 22.6705 24.9086 23.0694 24.7092 23.3685Z"/>
  </symbol>

  <symbol viewBox="0 0 35 36" id="iconTel">
    <path d="M18.9583 12.1667C20.1187 12.1667 21.2315 12.6276 22.0519 13.4481C22.8724 14.2685 23.3333 15.3813 23.3333 16.5417C23.3333 16.9284 23.487 17.2994 23.7605 17.5729C24.034 17.8464 24.4049 18 24.7917 18C25.1784 18 25.5494 17.8464 25.8229 17.5729C26.0964 17.2994 26.25 16.9284 26.25 16.5417C26.25 14.6078 25.4818 12.7531 24.1143 11.3857C22.7469 10.0182 20.8922 9.25 18.9583 9.25C18.5716 9.25 18.2006 9.40365 17.9271 9.67714C17.6536 9.95063 17.5 10.3216 17.5 10.7083C17.5 11.0951 17.6536 11.466 17.9271 11.7395C18.2006 12.013 18.5716 12.1667 18.9583 12.1667Z"/>
    <path d="M18.9577 6.33341C21.6651 6.33341 24.2616 7.40893 26.1761 9.32337C28.0905 11.2378 29.166 13.8343 29.166 16.5417C29.166 16.9285 29.3197 17.2995 29.5931 17.5729C29.8666 17.8464 30.2376 18.0001 30.6243 18.0001C31.0111 18.0001 31.3821 17.8464 31.6555 17.5729C31.929 17.2995 32.0827 16.9285 32.0827 16.5417C32.0827 13.0608 30.6999 9.72239 28.2385 7.26097C25.777 4.79956 22.4386 3.41675 18.9577 3.41675C18.5709 3.41675 18.2 3.57039 17.9265 3.84388C17.653 4.11737 17.4993 4.48831 17.4993 4.87508C17.4993 5.26186 17.653 5.63279 17.9265 5.90628C18.2 6.17977 18.5709 6.33341 18.9577 6.33341ZM31.7181 23.7022C31.6379 23.4681 31.4994 23.2582 31.3157 23.0924C31.132 22.9265 30.9092 22.8102 30.6681 22.7542L21.9181 20.7563C21.6806 20.7025 21.4334 20.709 21.199 20.7752C20.9647 20.8414 20.7506 20.9653 20.5764 21.1355C20.3723 21.3251 20.3577 21.3397 19.4098 23.148C16.2644 21.6986 13.7441 19.168 12.3077 16.0167C14.1598 15.0834 14.1743 15.0834 14.3639 14.8647C14.5341 14.6905 14.658 14.4764 14.7242 14.2421C14.7905 14.0077 14.797 13.7605 14.7431 13.523L12.7452 4.87508C12.6892 4.63401 12.5729 4.41114 12.4071 4.22745C12.2412 4.04376 12.0314 3.90529 11.7973 3.82508C11.4567 3.70344 11.105 3.61552 10.7473 3.56258C10.3787 3.47712 10.0025 3.42827 9.62435 3.41675C7.84519 3.41675 6.1389 4.12352 4.88084 5.38157C3.62278 6.63963 2.91602 8.34592 2.91602 10.1251C2.92373 16.079 5.29235 21.7869 9.50243 25.997C13.7125 30.2071 19.4204 32.5757 25.3743 32.5834C26.2553 32.5834 27.1276 32.4099 27.9415 32.0728C28.7554 31.7356 29.4949 31.2415 30.1179 30.6186C30.7408 29.9957 31.2349 29.2561 31.572 28.4422C31.9092 27.6284 32.0827 26.756 32.0827 25.8751C32.0831 25.5039 32.0539 25.1333 31.9952 24.7667C31.9339 24.4045 31.8412 24.0483 31.7181 23.7022Z"/>
  </symbol>
</svg>
