<svg style="display: none" xmlns="http://www.w3.org/2000/svg">
  <symbol viewBox="0 0 33 32" id="iconWA">
    <path d="M30.6005 7.4C25.8005 -4.76837e-07 16.0005 -2.2 8.40054 2.4C1.00054 7 -1.39946 17 3.40054 24.4L3.80054 25L2.20054 31L8.20054 29.4L8.80054 29.8C11.4005 31.2 14.2005 32 17.0005 32C20.0005 32 23.0005 31.2 25.6005 29.6C33.0005 24.8 35.2005 15 30.6005 7.4ZM26.4005 22.8C25.6005 24 24.6005 24.8 23.2005 25C22.4005 25 21.4005 25.4 17.4005 23.8C14.0005 22.2 11.2005 19.6 9.20054 16.6C8.00054 15.2 7.40054 13.4 7.20054 11.6C7.20054 10 7.80054 8.6 8.80054 7.6C9.20054 7.2 9.60054 7 10.0005 7H11.0005C11.4005 7 11.8005 7 12.0005 7.8C12.4005 8.8 13.4005 11.2 13.4005 11.4C13.6005 11.6 13.6005 12 13.4005 12.2C13.6005 12.6 13.4005 13 13.2005 13.2C13.0005 13.4 12.8005 13.8 12.6005 14C12.2005 14.2 12.0005 14.6 12.2005 15C13.0005 16.2 14.0005 17.4 15.0005 18.4C16.2005 19.4 17.4005 20.2 18.8005 20.8C19.2005 21 19.6005 21 19.8005 20.6C20.0005 20.2 21.0005 19.2 21.4005 18.8C21.8005 18.4 22.0005 18.4 22.4005 18.6L25.6005 20.2C26.0005 20.4 26.4005 20.6 26.6005 20.8C26.8005 21.4 26.8005 22.2 26.4005 22.8Z"/>
  </symbol>

  <symbol viewBox="0 0 35 36" id="iconTel">
    <path d="M18.9583 12.1667C20.1187 12.1667 21.2315 12.6276 22.0519 13.4481C22.8724 14.2685 23.3333 15.3813 23.3333 16.5417C23.3333 16.9284 23.487 17.2994 23.7605 17.5729C24.034 17.8464 24.4049 18 24.7917 18C25.1784 18 25.5494 17.8464 25.8229 17.5729C26.0964 17.2994 26.25 16.9284 26.25 16.5417C26.25 14.6078 25.4818 12.7531 24.1143 11.3857C22.7469 10.0182 20.8922 9.25 18.9583 9.25C18.5716 9.25 18.2006 9.40365 17.9271 9.67714C17.6536 9.95063 17.5 10.3216 17.5 10.7083C17.5 11.0951 17.6536 11.466 17.9271 11.7395C18.2006 12.013 18.5716 12.1667 18.9583 12.1667Z"/>
    <path d="M18.9577 6.33341C21.6651 6.33341 24.2616 7.40893 26.1761 9.32337C28.0905 11.2378 29.166 13.8343 29.166 16.5417C29.166 16.9285 29.3197 17.2995 29.5931 17.5729C29.8666 17.8464 30.2376 18.0001 30.6243 18.0001C31.0111 18.0001 31.3821 17.8464 31.6555 17.5729C31.929 17.2995 32.0827 16.9285 32.0827 16.5417C32.0827 13.0608 30.6999 9.72239 28.2385 7.26097C25.777 4.79956 22.4386 3.41675 18.9577 3.41675C18.5709 3.41675 18.2 3.57039 17.9265 3.84388C17.653 4.11737 17.4993 4.48831 17.4993 4.87508C17.4993 5.26186 17.653 5.63279 17.9265 5.90628C18.2 6.17977 18.5709 6.33341 18.9577 6.33341ZM31.7181 23.7022C31.6379 23.4681 31.4994 23.2582 31.3157 23.0924C31.132 22.9265 30.9092 22.8102 30.6681 22.7542L21.9181 20.7563C21.6806 20.7025 21.4334 20.709 21.199 20.7752C20.9647 20.8414 20.7506 20.9653 20.5764 21.1355C20.3723 21.3251 20.3577 21.3397 19.4098 23.148C16.2644 21.6986 13.7441 19.168 12.3077 16.0167C14.1598 15.0834 14.1743 15.0834 14.3639 14.8647C14.5341 14.6905 14.658 14.4764 14.7242 14.2421C14.7905 14.0077 14.797 13.7605 14.7431 13.523L12.7452 4.87508C12.6892 4.63401 12.5729 4.41114 12.4071 4.22745C12.2412 4.04376 12.0314 3.90529 11.7973 3.82508C11.4567 3.70344 11.105 3.61552 10.7473 3.56258C10.3787 3.47712 10.0025 3.42827 9.62435 3.41675C7.84519 3.41675 6.1389 4.12352 4.88084 5.38157C3.62278 6.63963 2.91602 8.34592 2.91602 10.1251C2.92373 16.079 5.29235 21.7869 9.50243 25.997C13.7125 30.2071 19.4204 32.5757 25.3743 32.5834C26.2553 32.5834 27.1276 32.4099 27.9415 32.0728C28.7554 31.7356 29.4949 31.2415 30.1179 30.6186C30.7408 29.9957 31.2349 29.2561 31.572 28.4422C31.9092 27.6284 32.0827 26.756 32.0827 25.8751C32.0831 25.5039 32.0539 25.1333 31.9952 24.7667C31.9339 24.4045 31.8412 24.0483 31.7181 23.7022Z"/>
  </symbol>
</svg>

